<svg width="20" height="20" viewBox="0 0 20 20" fill="none" xmlns="http://www.w3.org/2000/svg">
<path d="M16.6041 8.65264C16.6672 8.50032 16.6837 8.33272 16.6515 8.17103C16.6193 8.00935 16.5399 7.86084 16.4232 7.7443L12.2566 3.57764L11.0782 4.75597L13.8224 7.50014H3.33408V9.1668H15.8341C15.9989 9.16684 16.16 9.11802 16.2971 9.0265C16.4341 8.93498 16.541 8.80487 16.6041 8.65264ZM3.39741 11.3476C3.33433 11.4999 3.31783 11.6676 3.35002 11.8292C3.38221 11.9909 3.46164 12.1394 3.57825 12.256L7.74491 16.4226L8.92325 15.2443L6.17908 12.5001H16.6674V10.8335H4.16741C4.00258 10.8333 3.84142 10.8821 3.70434 10.9736C3.56726 11.0652 3.46044 11.1953 3.39741 11.3476Z" fill="#696969"/>
</svg>
