<svg width="40" height="40" viewBox="0 0 40 40" fill="none" xmlns="http://www.w3.org/2000/svg">
<path d="M27.9241 18.383C27.9998 18.2002 28.0196 17.9991 27.981 17.805C27.9424 17.611 27.847 17.4328 27.7071 17.293L22.7071 12.293L21.2931 13.707L24.5861 17H12.0001V19H27.0001C27.1979 19 27.3912 18.9414 27.5557 18.8316C27.7202 18.7218 27.8484 18.5657 27.9241 18.383ZM12.0761 21.617C12.0004 21.7997 11.9806 22.0009 12.0192 22.1949C12.0579 22.3889 12.1532 22.5671 12.2931 22.707L17.2931 27.707L18.7071 26.293L15.4141 23H28.0001V21H13.0001C12.8023 20.9998 12.6089 21.0583 12.4444 21.1682C12.2799 21.278 12.1517 21.4342 12.0761 21.617Z" fill="#B7B7B7"/>
</svg>
