<svg width="25" height="54" viewBox="0 0 25 54" fill="none" xmlns="http://www.w3.org/2000/svg">
<path d="M0 0H23.8641C24.4918 0 25.0005 0.508778 25.0005 1.13639V5.11375C25.0005 5.74136 24.4918 6.25013 23.8641 6.25013H0V0Z" fill="white"/>
<path d="M0 11.9321H23.8641C24.4918 11.9321 25.0005 12.4409 25.0005 13.0685V17.0459C25.0005 17.6735 24.4918 18.1822 23.8641 18.1822H0V11.9321Z" fill="white"/>
<path d="M0 23.8642H23.8641C24.4918 23.8642 25.0005 24.373 25.0005 25.0006V28.978C25.0005 29.6056 24.4918 30.1143 23.8641 30.1143H0V23.8642Z" fill="white"/>
<path d="M0 35.7963H23.8641C24.4918 35.7963 25.0005 36.3051 25.0005 36.9327V40.9101C25.0005 41.5377 24.4918 42.0465 23.8641 42.0465H0V35.7963Z" fill="white"/>
<path d="M0 47.7282H23.8641C24.4918 47.7282 25.0005 48.237 25.0005 48.8646V52.8419C25.0005 53.4695 24.4918 53.9783 23.8641 53.9783H0V47.7282Z" fill="white"/>
</svg>
