<svg width="20" height="20" viewBox="0 0 20 20" fill="none" xmlns="http://www.w3.org/2000/svg">
<path d="M2.49917 10.8333H3.3325V16.6667C3.3325 17.5858 4.08 18.3333 4.99917 18.3333H14.9992C15.9183 18.3333 16.6658 17.5858 16.6658 16.6667V10.8333H17.4992C17.664 10.8333 17.825 10.7844 17.9621 10.6928C18.0991 10.6013 18.2058 10.4711 18.2689 10.3189C18.332 10.1666 18.3485 9.99911 18.3163 9.83748C18.2842 9.67585 18.2048 9.52738 18.0883 9.41084L10.5883 1.91084C10.511 1.83338 10.4192 1.77194 10.3181 1.73001C10.217 1.68808 10.1086 1.6665 9.99917 1.6665C9.88973 1.6665 9.78136 1.68808 9.68026 1.73001C9.57917 1.77194 9.48733 1.83338 9.41001 1.91084L1.91 9.41084C1.7935 9.52738 1.71416 9.67585 1.68202 9.83748C1.64988 9.99911 1.66638 10.1666 1.72944 10.3189C1.7925 10.4711 1.89928 10.6013 2.03629 10.6928C2.1733 10.7844 2.33438 10.8333 2.49917 10.8333ZM8.3325 16.6667V12.5H11.6658V16.6667H8.3325ZM9.99917 3.67834L14.9992 8.67834V12.5L15 16.6667H13.3325V12.5C13.3325 11.5808 12.585 10.8333 11.6658 10.8333H8.3325C7.41334 10.8333 6.66584 11.5808 6.66584 12.5V16.6667H4.99917V8.67834L9.99917 3.67834Z" fill="#696969"/>
</svg>
