<svg width="40" height="40" viewBox="0 0 40 40" fill="none" xmlns="http://www.w3.org/2000/svg">
<g clip-path="url(#clip0_469_5178)">
<path d="M10 15.0178V25.7747C10 26.3997 10.3507 26.99 10.9375 27.2088C13.9583 28.3372 16.9792 27.5664 20 26.7956C22.7708 26.0907 25.5417 25.3824 28.309 26.1393C29.1076 26.3581 30 25.8095 30 24.9796V14.2261C30 13.6011 29.6493 13.0108 29.0625 12.7921C26.0417 11.6636 23.0208 12.4345 20 13.2053C17.2292 13.9101 14.4583 14.615 11.691 13.8581C10.8889 13.6393 10 14.1879 10 15.0178ZM14.4444 25.556H12.2222V23.3338C13.4479 23.3338 14.4444 24.3303 14.4444 25.556ZM12.2222 18.8893V16.6671H14.4444C14.4444 17.8928 13.4479 18.8893 12.2222 18.8893ZM25.5556 23.3338C25.5556 22.1081 26.5521 21.1115 27.7778 21.1115V23.3338H25.5556ZM27.7778 16.6671C26.5521 16.6671 25.5556 15.6706 25.5556 14.4449H27.7778V16.6671ZM23.3333 20.0004C23.3333 22.1497 21.8403 23.8893 20 23.8893C18.1597 23.8893 16.6667 22.1497 16.6667 20.0004C16.6667 17.8511 18.1597 16.1115 20 16.1115C21.8403 16.1115 23.3333 17.8511 23.3333 20.0004ZM18.75 18.3338C18.75 18.6706 18.9896 18.9483 19.3056 19.0143V20.6949H19.1667C18.7847 20.6949 18.4722 21.0074 18.4722 21.3893C18.4722 21.7713 18.7847 22.0838 19.1667 22.0838H20.8333C21.2153 22.0838 21.5278 21.7713 21.5278 21.3893C21.5278 21.0074 21.2153 20.6949 20.8333 20.6949H20.6944V18.3338C20.6944 17.9518 20.3819 17.6393 20 17.6393H19.4444C19.0625 17.6393 18.75 17.9518 18.75 18.3338Z" fill="#B7B7B7"/>
</g>
<defs>
<clipPath id="clip0_469_5178">
<rect width="20" height="17.7778" fill="white" transform="translate(10 11.1113)"/>
</clipPath>
</defs>
</svg>
