<svg width="121" height="67" viewBox="0 0 121 67" fill="none" xmlns="http://www.w3.org/2000/svg">
<g clip-path="url(#clip0_469_5238)">
<path d="M29.3324 14.6955C29.3228 14.3957 29.3724 14.0969 29.4785 13.8164C29.5845 13.5358 29.7448 13.2789 29.9502 13.0603C30.1557 12.8418 30.4022 12.6659 30.6757 12.5428C30.9492 12.4196 31.2443 12.3516 31.5441 12.3427L37.842 12.1546L43.1815 7.69614C43.2034 7.45984 43.2912 7.23443 43.435 7.04558C43.5787 6.85673 43.7725 6.71202 43.9944 6.62792C44.2164 6.54381 44.4574 6.5237 44.6902 6.56986C44.923 6.61602 45.1382 6.7266 45.3112 6.88902C45.4842 7.05144 45.6082 7.25917 45.669 7.48857C45.7298 7.71797 45.725 7.95983 45.6551 8.18663C45.5852 8.41342 45.453 8.61604 45.2736 8.77142C45.0942 8.9268 44.8748 9.0287 44.6404 9.06552L39.0434 15.442L32.0659 16.8581C31.7406 16.9241 31.4049 16.9183 31.0821 16.8412C30.7593 16.7641 30.4572 16.6174 30.197 16.4115C29.9367 16.2056 29.7245 15.9454 29.5751 15.649C29.4258 15.3526 29.343 15.0272 29.3324 14.6955Z" fill="#9E616A"/>
<path d="M37.8864 16.2733L37.0618 12.0046L37.0349 11.9837C36.8598 11.8473 36.6477 11.7669 36.4262 11.7528C36.2047 11.7387 35.9841 11.7917 35.7932 11.9049L35.7453 11.933L30.1848 12.0827L29.5339 12.4658L29.1583 12.3741C28.0226 12.0969 26.8751 11.909 26.1752 12.406C25.7796 12.6867 25.5555 13.154 25.4896 13.834C25.4422 14.3222 25.5053 14.8149 25.674 15.2755C25.8428 15.7361 26.113 16.1528 26.4646 16.4949C26.8162 16.8369 27.2402 17.0956 27.7052 17.2516C28.1703 17.4077 28.6644 17.4572 29.1512 17.3965L29.4308 17.3585L30.3467 16.9886L31.7632 17.1568L32.6108 16.8085L37.8864 16.2733Z" fill="url(#paint0_linear_469_5238)"/>
<path d="M59.4201 63.4666C59.4014 64.353 59.5238 65.2367 59.7825 66.0847C59.7916 66.1155 59.8024 66.1463 59.8133 66.1771H65.1475C65.0712 65.8016 64.9502 65.4367 64.7869 65.09C64.343 64.1478 63.6183 63.3415 62.9026 62.5407C61.9169 61.4372 60.9548 60.3429 60.8026 58.9079C60.4119 59.5035 60.1001 60.1472 59.8749 60.823C60.1506 60.9251 60.4035 61.0803 60.6196 61.2796C60.6794 61.3358 60.7428 61.4173 60.712 61.4952C60.683 61.5605 60.6033 61.5822 60.5326 61.5967C60.3623 61.6293 60.192 61.6619 60.0217 61.6927C59.8876 61.7199 59.7517 61.7453 59.6158 61.7706C59.4964 62.3284 59.4308 62.8963 59.4201 63.4666Z" fill="#E6E6E6"/>
<path d="M54.9385 62.8789C55.7937 63.3989 56.3373 64.2034 56.7812 65.1039C57.1675 65.192 57.5241 65.3793 57.8158 65.6475C57.8774 65.7037 57.9408 65.7852 57.9082 65.8631C57.881 65.9283 57.7994 65.9501 57.7288 65.9646C57.5603 65.9972 57.3882 66.0298 57.2197 66.0606C57.236 66.0986 57.2523 66.1385 57.2686 66.1765H62.9217C62.665 65.8305 62.3808 65.5057 62.0719 65.2054C62.0048 65.1383 61.936 65.0749 61.8653 65.0097C61.1447 64.3584 60.3172 63.8362 59.4193 63.466C58.0046 62.8746 56.4577 62.6719 54.9385 62.8789Z" fill="#E6E6E6"/>
<path d="M61.9785 66.1772H67.0119C67.0394 65.7741 67.037 65.3696 67.0047 64.9669C66.8957 63.7203 66.5177 62.5123 65.8968 61.4259C65.2759 60.3395 64.4268 59.4007 63.4081 58.6742C63.669 59.6037 63.5349 60.5277 63.2632 61.4554C63.3012 61.4681 63.3393 61.479 63.3737 61.4935C63.6493 61.5956 63.9023 61.7507 64.1184 61.9501C64.1781 62.0062 64.2416 62.0878 64.2108 62.1657C64.1836 62.2309 64.1021 62.2526 64.0314 62.2671C63.8611 62.2997 63.6908 62.3324 63.5223 62.3632C63.3864 62.3903 63.2505 62.4157 63.1146 62.4429C63.0512 62.4538 62.9877 62.4664 62.9243 62.4791C62.9153 62.5009 62.9098 62.5208 62.9008 62.5407C62.5819 63.4195 62.234 64.3055 62.0709 65.206C62.0306 65.432 62.0027 65.66 61.9876 65.8891C61.9822 65.9851 61.9785 66.0812 61.9785 66.1772Z" fill="#E6E6E6"/>
<path d="M83.8293 58.3457C83.7753 60.9068 84.1287 63.4601 84.8763 65.9103C84.9025 65.9992 84.9339 66.0882 84.9653 66.1772H100.377C100.157 65.0923 99.807 64.0378 99.3353 63.0363C98.0527 60.3141 95.9588 57.9845 93.8909 55.6706C91.0431 52.4825 88.2633 49.3206 87.8236 45.1745C86.6948 46.8954 85.7938 48.7553 85.1433 50.7079C85.9397 51.0029 86.6707 51.4511 87.2948 52.0271C87.4676 52.1894 87.6508 52.4249 87.5618 52.65C87.4781 52.8385 87.2477 52.9013 87.0436 52.9432C86.5515 53.0374 86.0594 53.1317 85.5673 53.2207C85.1799 53.2992 84.7873 53.3725 84.3947 53.4458C84.0496 55.0572 83.8602 56.6981 83.8293 58.3457Z" fill="#E6E6E6"/>
<path d="M70.8822 56.6489C73.3531 58.1514 74.9236 60.4757 76.2062 63.0775C77.3223 63.3318 78.3527 63.8732 79.1954 64.648C79.3734 64.8103 79.5566 65.0458 79.4624 65.2709C79.3838 65.4594 79.1482 65.5222 78.9441 65.5641C78.4573 65.6583 77.9599 65.7526 77.4731 65.8415C77.5202 65.9515 77.5673 66.0666 77.6144 66.1766H93.9475C93.2061 65.1766 92.385 64.2383 91.4923 63.3706C91.2986 63.1769 91.0997 62.9937 90.8955 62.8053C88.8135 60.9236 86.4228 59.4148 83.8283 58.345C79.7411 56.6364 75.2716 56.0508 70.8822 56.6489Z" fill="#E6E6E6"/>
<path d="M91.2251 66.1775H105.768C105.847 65.013 105.84 63.8441 105.747 62.6806C105.166 55.4929 101.255 48.6456 95.3555 44.4995C96.1093 47.185 95.7219 49.8549 94.9367 52.5352C95.0466 52.5718 95.1565 52.6032 95.256 52.6451C96.0525 52.9401 96.7834 53.3883 97.4076 53.9643C97.5803 54.1266 97.7636 54.3622 97.6746 54.5873C97.5961 54.7757 97.3605 54.8386 97.1563 54.8804C96.6642 54.9747 96.1721 55.0689 95.6853 55.1579C95.2927 55.2364 94.9 55.3097 94.5074 55.3883C94.3242 55.4197 94.141 55.4563 93.9578 55.4929C93.9316 55.5557 93.9159 55.6134 93.8897 55.6709C92.9683 58.2099 91.9632 60.7698 91.4921 63.3716C91.3754 64.0245 91.295 64.6834 91.2512 65.3452C91.2355 65.6226 91.2251 65.9001 91.2251 66.1775Z" fill="#E6E6E6"/>
<path d="M28.024 58.3457C27.97 60.9068 28.3234 63.4601 29.071 65.9103C29.0972 65.9992 29.1286 66.0882 29.16 66.1772H44.5718C44.3515 65.0923 44.0017 64.0378 43.53 63.0363C42.2475 60.3141 40.1535 57.9845 38.0857 55.6706C35.2378 52.4825 32.458 49.3206 32.0183 45.1745C30.8895 46.8954 29.9885 48.7553 29.338 50.7079C30.1344 51.0029 30.8654 51.4511 31.4895 52.0271C31.6623 52.1894 31.8456 52.4249 31.7565 52.65C31.6728 52.8385 31.4425 52.9013 31.2383 52.9432C30.7462 53.0374 30.2541 53.1317 29.762 53.2207C29.3746 53.2992 28.982 53.3725 28.5894 53.4458C28.2443 55.0572 28.055 56.6981 28.024 58.3457Z" fill="#E6E6E6"/>
<path d="M15.0769 56.6489C17.5479 58.1514 19.1184 60.4757 20.4009 63.0775C21.517 63.3318 22.5474 63.8732 23.3901 64.648C23.5681 64.8103 23.7513 65.0458 23.6571 65.2709C23.5785 65.4594 23.343 65.5222 23.1388 65.5641C22.652 65.6583 22.1547 65.7526 21.6678 65.8415C21.7149 65.9515 21.762 66.0666 21.8091 66.1766H38.1423C37.4008 65.1766 36.5797 64.2383 35.6871 63.3706C35.4934 63.1769 35.2944 62.9937 35.0903 62.8053C33.0082 60.9236 30.6175 59.4148 28.023 58.345C23.9359 56.6364 19.4664 56.0508 15.0769 56.6489Z" fill="#E6E6E6"/>
<path d="M35.4198 66.1775H49.9626C50.042 65.013 50.035 63.8441 49.9416 62.6806C49.3605 55.4929 45.45 48.6456 39.5502 44.4995C40.304 47.185 39.9167 49.8549 39.1314 52.5352C39.2413 52.5718 39.3513 52.6032 39.4507 52.6451C40.2472 52.9401 40.9781 53.3883 41.6023 53.9643C41.7751 54.1266 41.9583 54.3622 41.8693 54.5873C41.7908 54.7757 41.5552 54.8386 41.351 54.8804C40.859 54.9747 40.3669 55.0689 39.88 55.1579C39.4874 55.2364 39.0948 55.3097 38.7021 55.3883C38.5189 55.4197 38.3357 55.4563 38.1525 55.4929C38.1263 55.5557 38.1106 55.6134 38.0844 55.6709C37.163 58.2099 36.1579 60.7698 35.6868 63.3716C35.5702 64.0245 35.4898 64.6834 35.446 65.3452C35.4303 65.6226 35.4198 65.9001 35.4198 66.1775Z" fill="#E6E6E6"/>
<path d="M60.1644 15.9882C60.1657 18.7739 61.1702 21.4659 62.994 23.5715C64.8178 25.6771 67.339 27.0554 70.096 27.4541C72.8529 27.8529 75.6613 27.2454 78.007 25.7429C80.3526 24.2403 82.0787 21.9433 82.8693 19.2721C83.6598 16.601 83.4619 13.7345 82.3118 11.1974C81.1617 8.66024 79.1363 6.62217 76.6064 5.45624C74.0765 4.2903 71.2113 4.07451 68.5353 4.84835C65.8593 5.6222 63.5515 7.33391 62.0343 9.67017C62.2086 9.82484 62.3721 9.99132 62.5235 10.1684C62.5634 10.2137 62.6032 10.2626 62.6413 10.3098C62.6974 10.3786 62.75 10.4475 62.8007 10.5181C62.8605 10.5997 62.9167 10.683 62.971 10.7682C63.2397 11.1855 63.4449 11.6404 63.5798 12.118C63.2278 11.6956 62.8143 11.3286 62.3532 11.0291C62.3435 11.0226 62.3332 11.0171 62.3224 11.0128C62.2771 10.9838 62.2318 10.9548 62.1847 10.9258C61.9833 10.8031 61.7746 10.6929 61.5596 10.596C61.5415 10.5888 61.5233 10.5797 61.5052 10.5725C60.6214 12.2406 60.161 14.1004 60.1644 15.9882Z" fill="#BEBDC2"/>
<path d="M66.3517 66.1842C66.5926 65.9849 66.8282 65.7801 67.0583 65.5663C68.8957 63.839 70.3393 61.7359 71.2908 59.4005C72.0696 57.5164 72.5253 55.5147 72.6389 53.4792C72.6661 52.9973 72.6715 52.5171 72.6588 52.037C72.6259 50.7846 72.4527 49.5399 72.1424 48.3262C71.7782 46.9166 71.2311 45.5631 70.6585 44.2259C70.3758 43.5646 70.0823 42.9014 69.7997 42.2329C68.9372 40.1999 68.1617 38.1181 68.0421 35.8985C67.8944 33.0386 68.7301 30.2144 70.4103 27.8954C70.615 27.6128 70.1439 27.341 69.941 27.6218C69.7326 27.9063 69.5369 28.1998 69.3539 28.5024C67.8845 30.9373 67.2538 33.7867 67.5584 36.6142C67.7776 38.5402 68.4299 40.3503 69.1728 42.126C69.5551 43.0464 69.9627 43.956 70.3469 44.8709C70.4628 45.1464 70.577 45.4218 70.6875 45.7008C71.1185 46.7476 71.4668 47.8266 71.7293 48.9278C72.0022 50.1455 72.1341 51.3906 72.1225 52.6385C72.1189 52.9683 72.108 53.2962 72.0863 53.6242C71.9431 55.7959 71.4001 57.9224 70.4846 59.8969C69.4362 62.1763 67.8924 64.193 65.9657 65.8C65.6958 66.0229 66.0835 66.4052 66.3517 66.1842Z" fill="url(#paint1_linear_469_5238)"/>
<path d="M70.3479 61.1565C70.6433 61.075 70.9356 60.985 71.2249 60.8865C73.5841 60.0685 75.7413 58.7558 77.552 57.0363C79.362 55.332 80.8026 53.274 81.7845 50.99C82.2752 49.8458 82.6368 48.6504 82.8626 47.426C82.985 46.7304 83.0715 46.0288 83.1217 45.3243C83.1851 44.4672 83.2069 43.6048 83.2177 42.7459C83.2413 40.8 83.2105 38.8105 83.5058 36.8827C83.663 35.7651 83.9657 34.673 84.4063 33.634C85.4699 31.191 87.2836 29.1501 89.5847 27.807C89.8873 27.6312 89.6137 27.1619 89.3111 27.3377C89.0303 27.5007 88.7549 27.6729 88.4867 27.8577C86.304 29.363 84.6297 31.4953 83.6852 33.9728C83.35 34.8747 83.1107 35.8093 82.9713 36.7613C82.6434 38.883 82.705 41.0718 82.6669 43.2116C82.6542 43.94 82.6289 44.6702 82.5709 45.3986C82.5156 46.1827 82.4085 46.9623 82.2502 47.7323C81.9953 48.936 81.6057 50.1072 81.0888 51.2238C80.0389 53.4746 78.5299 55.481 76.6587 57.1142C74.795 58.7513 72.5904 59.9532 70.2048 60.6329C69.8678 60.7271 70.0109 61.2525 70.3479 61.1565Z" fill="url(#paint2_linear_469_5238)"/>
<path d="M90.9668 28.0555C92.6533 28.8033 94.4939 29.138 96.3358 29.0316C98.1776 28.9252 99.9675 28.3809 101.557 27.4439C103.146 26.5069 104.489 25.2042 105.473 23.644C106.458 22.0839 107.056 20.3113 107.218 18.4735C107.38 16.6358 107.102 14.7858 106.405 13.0774C105.709 11.369 104.615 9.85145 103.214 8.65075C101.813 7.45005 100.146 6.60089 98.3516 6.1738C96.5568 5.74671 94.686 5.75403 92.8946 6.19513C92.9472 6.2676 92.9979 6.3437 93.0468 6.41981C93.3155 6.83713 93.5206 7.29205 93.6556 7.76966C93.3036 7.34729 92.8901 6.98021 92.429 6.68072C92.4193 6.67421 92.409 6.66874 92.3981 6.6644C92.3529 6.63542 92.3076 6.60642 92.2605 6.57743C92.1844 6.53032 92.1083 6.48684 92.0303 6.44516C90.3822 6.98869 88.8769 7.89516 87.6256 9.09776C87.8 9.2174 87.9664 9.34813 88.1239 9.48914C88.2982 9.64381 88.4617 9.8103 88.6131 9.98741C88.653 10.0327 88.6929 10.0816 88.7309 10.1287C88.7871 10.1976 88.8396 10.2664 88.8903 10.3371C88.8958 10.3462 88.903 10.3534 88.9085 10.3625C88.961 10.4349 89.0117 10.511 89.0607 10.5871C89.3293 11.0045 89.5345 11.4594 89.6695 11.937C89.3174 11.5146 88.9039 11.1475 88.4428 10.8481C88.4331 10.8415 88.4228 10.8361 88.412 10.8317C88.3667 10.8028 88.3214 10.7738 88.2743 10.7448C88.1982 10.6977 88.1221 10.6542 88.0442 10.6125C87.9155 10.5418 87.7833 10.4766 87.6492 10.415C87.6311 10.4078 87.613 10.3987 87.5949 10.3915C87.3085 10.2661 87.0121 10.1649 86.7088 10.0889C85.5749 11.4703 84.7754 13.0949 84.3726 14.8361C83.9699 16.5773 83.9747 18.388 84.3869 20.127C84.799 21.866 85.6073 23.4864 86.7486 24.8616C87.8899 26.2369 89.3335 27.3299 90.9668 28.0555L90.9668 28.0555Z" fill="#AF8CE8"/>
<path d="M57.5994 16.2227C58.3692 18.8999 58.1491 21.7648 56.9794 24.2929C55.8097 26.8211 53.7686 28.8434 51.2297 29.9897C48.6909 31.136 45.8241 31.3296 43.1541 30.5351C40.4842 29.7405 38.1897 28.011 36.6907 25.6631C35.1917 23.3151 34.5884 20.5059 34.9913 17.7495C35.3942 14.9932 36.7763 12.4741 38.8846 10.6534C40.9929 8.83277 43.6864 7.83232 46.4721 7.8352C49.2577 7.83808 51.9492 8.84411 54.0537 10.6691C53.9291 10.866 53.8181 11.0712 53.7216 11.2833C53.6958 11.3379 53.671 11.3959 53.6475 11.4517C53.6126 11.5335 53.5812 11.6142 53.552 11.6961C53.5171 11.791 53.4862 11.8866 53.4575 11.9835C53.3149 12.4589 53.2437 12.9528 53.2462 13.4491C53.4675 12.9458 53.7633 12.4786 54.1235 12.0632C54.1309 12.0543 54.1394 12.0462 54.1486 12.039C54.1841 11.9986 54.2196 11.9582 54.2568 11.9173C54.4163 11.7437 54.5864 11.58 54.7662 11.4274C54.7816 11.4154 54.7965 11.4017 54.8119 11.3897C56.1229 12.7481 57.0801 14.4077 57.5994 16.2227Z" fill="#6C63FF"/>
<path d="M51.0455 30.4973C51.3082 30.7002 51.5625 30.914 51.8083 31.1387C53.7796 32.9491 55.1199 35.3427 55.6332 37.9695C55.6694 38.1579 55.7002 38.3482 55.7274 38.5384C56.1477 41.4701 55.5136 44.4452 55.2037 47.3587C55.1929 47.4583 55.182 47.5562 55.1729 47.6558C55.0175 49.0221 54.9987 50.4006 55.1168 51.7706C55.2416 53.0085 55.5011 54.229 55.8904 55.4107C56.6755 57.7678 57.9305 59.9412 59.5794 61.7994C61.2268 63.6714 63.2623 65.1621 65.5442 66.1679C65.8613 66.3056 66.1385 65.8363 65.8178 65.6986C65.5333 65.5736 65.2506 65.4431 64.9734 65.3036C62.7656 64.1747 60.8303 62.5783 59.3022 60.6253C57.7716 58.6875 56.6682 56.448 56.0644 54.0536C55.7588 52.8416 55.5965 51.5981 55.5806 50.3483C55.5751 49.5018 55.615 48.6556 55.7002 47.8135C55.769 47.0778 55.8633 46.3422 55.9575 45.6084C56.2564 43.3073 56.5572 40.97 56.2818 38.6743C56.1973 37.9548 56.0493 37.2442 55.8397 36.5508C55.0627 34.0048 53.5242 31.7581 51.4314 30.1132C51.1578 29.8994 50.7701 30.2817 51.0455 30.4973Z" fill="url(#paint3_linear_469_5238)"/>
<path d="M70.0885 37.1513C70.7522 35.5503 71.9961 34.2019 73.0915 32.8178C74.4234 31.1314 77.1647 31.9094 77.3439 34.0496C76.1147 34.4536 75.9551 36.2291 77.361 36.4721C77.0021 40.3459 74.5301 43.9182 71.0938 45.7136L69.3943 42.538C69.1646 40.7301 69.5063 38.5545 70.0885 37.1513Z" fill="url(#paint4_linear_469_5238)"/>
<path d="M69.3945 42.5463C69.3755 42.5085 69.3564 42.4707 69.3372 42.4331L69.3937 42.5386L69.3945 42.5463Z" fill="#2F2E41"/>
<path d="M57.2235 50.74C57.8872 49.139 59.1312 47.7906 60.2266 46.4066C61.5585 44.7201 64.2997 45.4982 64.4789 47.6383C63.2497 48.0423 63.0901 49.8178 64.4961 50.0608C64.1371 53.9347 61.6652 57.5069 58.2289 59.3023L56.5294 56.1267C56.2997 54.3188 56.6414 52.1432 57.2235 50.74Z" fill="url(#paint5_linear_469_5238)"/>
<path d="M52.9226 46.5398C51.5686 47.6216 49.8283 48.202 48.2008 48.8854C46.2203 49.7194 44.1952 47.7148 45.0713 45.754C46.3428 45.9935 47.3396 44.5156 46.2256 43.6241C48.4099 40.4047 52.2992 38.4695 56.1753 38.5559L56.1308 42.1573C55.4593 43.8515 54.1098 45.5919 52.9226 46.5398Z" fill="url(#paint6_linear_469_5238)"/>
<path d="M85.8843 46.7208C87.2383 47.8026 88.9786 48.383 90.6061 49.0664C92.5866 49.9004 94.6117 47.8958 93.7356 45.9351C92.4641 46.1746 91.4673 44.6967 92.5813 43.8052C90.397 40.5858 86.5077 38.6505 82.6316 38.7369L82.6761 42.3383C83.3476 44.0326 84.6971 45.773 85.8843 46.7208Z" fill="url(#paint7_linear_469_5238)"/>
<path d="M56.5315 56.1355C56.5125 56.0977 56.4934 56.0599 56.4742 56.0223L56.5306 56.1278L56.5315 56.1355Z" fill="#2F2E41"/>
<path d="M34.4342 23.2353L34.7966 24.5037L34.6154 29.7581L27.0055 27.4026L26.2414 22.3671L34.4342 23.2353Z" fill="#9E616A"/>
<path d="M39.9446 62.7659L41.8284 62.3995L41.3114 54.959L38.5312 55.4998L39.9446 62.7659Z" fill="#9E616A"/>
<path d="M39.126 61.9594L39.7573 61.7979L41.7524 61.2844L42.0688 61.2026L42.3171 62.4796L45.5287 63.8836C45.6875 63.9527 45.82 64.0709 45.9069 64.2207C45.9937 64.3705 46.0304 64.5442 46.0115 64.7163C45.9926 64.8885 45.9191 65.0501 45.8018 65.1775C45.6845 65.3049 45.5295 65.3915 45.3595 65.4245L41.8131 66.1142L40.9574 64.9701L40.9629 66.2795L39.6272 66.5393L39.126 61.9594Z" fill="#2F2E41"/>
<path d="M15.7111 61.4923L17.5589 62.0106L20.4379 55.1303L17.7109 54.3652L15.7111 61.4923Z" fill="#9E616A"/>
<path d="M15.3399 60.4041L15.9765 60.5432L17.9897 60.9802L18.3091 61.0491L17.9576 62.3017L20.1968 64.9983C20.3076 65.1314 20.373 65.2964 20.3833 65.4693C20.3937 65.6421 20.3484 65.8138 20.2543 65.9591C20.1601 66.1045 20.0219 66.2159 19.8598 66.277C19.6978 66.3382 19.5205 66.346 19.3537 66.2992L15.8752 65.323L15.6245 63.9165L15.0414 65.089L13.7312 64.7213L15.3399 60.4041Z" fill="#2F2E41"/>
<path d="M34.9794 28.6705L26.3837 26.0242C26.3837 26.0242 26.6447 26.8586 25.5641 28.6538C24.4353 30.5291 23.7952 32.7178 23.7707 34.4414C23.7176 38.1698 23.2184 41.8784 22.1015 45.436L22.0045 45.7448C22.0045 45.7448 19.4012 47.8687 18.3101 52.4062L16.0659 57.916L18.8536 58.7478L26.1547 47.7466L26.8485 47.1851C27.3533 46.7764 27.7645 46.2641 28.0542 45.6828C28.344 45.1015 28.5055 44.4648 28.5278 43.8156L30.721 40.1829L32.351 43.381L34.9868 47.1303L36.5955 52.6523C37.0805 55.2247 37.4826 57.633 39.1467 59.6537L42.157 59.2514L40.0527 46.6081L38.1666 41.1137L36.7522 36.9937L35.8853 34.4685L34.9794 28.6705Z" fill="#2F2E41"/>
<path d="M35.5043 26.026C35.6192 26.7502 35.4332 27.4202 35.5264 28.2756C35.5418 28.4173 35.9035 28.749 35.9146 28.8898C35.9411 29.2254 35.6752 29.3641 35.667 29.6824C35.6606 29.9308 35.92 30.3639 35.8847 30.5924C35.5126 33.0003 33.3459 34.0694 25.3977 28.979C25.3977 28.979 24.6943 28.557 25.1796 27.6921C25.309 27.4615 24.7435 27.193 24.6943 26.8688C24.6569 26.6225 24.9655 26.3022 24.9256 26.0248C24.8784 25.6973 24.83 25.3498 24.7814 24.986C24.1476 20.2391 23.4884 12.7208 25.3303 10.8376L26.3703 8.92154L30.2672 9.58472L30.2809 11.2285L33.0516 14.1182C33.0516 14.1182 35.7363 16.8839 34.823 19.5537C34.1604 22.1201 34.4066 23.2709 35.5043 26.026Z" fill="url(#paint8_linear_469_5238)"/>
<path d="M27.5508 14.9652C27.8386 14.8807 28.1403 14.8538 28.4385 14.8861C28.7367 14.9183 29.0256 15.009 29.2887 15.1531C29.5518 15.2971 29.7839 15.4916 29.9717 15.7255C30.1595 15.9593 30.2994 16.2279 30.3833 16.5159L32.1455 22.5651L37.801 26.6152C38.0352 26.5771 38.2755 26.6056 38.4943 26.6974C38.7132 26.7891 38.9019 26.9404 39.039 27.1342C39.1761 27.3279 39.2561 27.5562 39.2698 27.7931C39.2835 28.03 39.2305 28.2661 39.1166 28.4743C39.0028 28.6826 38.8329 28.8547 38.626 28.9711C38.4192 29.0875 38.1839 29.1435 37.9468 29.1327C37.7097 29.122 37.4804 29.0449 37.285 28.9102C37.0896 28.7755 36.9359 28.5887 36.8415 28.371L29.2647 24.553L26.1432 18.1539C25.9977 17.8556 25.919 17.5292 25.9127 17.1973C25.9064 16.8655 25.9726 16.5363 26.1066 16.2327C26.2406 15.9291 26.4393 15.6584 26.6887 15.4395C26.9382 15.2205 27.2324 15.0587 27.5508 14.9652Z" fill="#9E616A"/>
<path d="M28.1694 23.6411L32.0947 21.7719L32.1081 21.7406C32.1962 21.5369 32.2209 21.3113 32.1789 21.0934C32.137 20.8755 32.0303 20.6752 31.8729 20.5188L31.8337 20.4795L30.2936 15.1345L29.7595 14.6004L29.754 14.2138C29.7374 13.045 29.6314 11.887 28.9746 11.3342C28.6037 11.0217 28.0951 10.922 27.4203 11.0288C26.9358 11.1055 26.4747 11.2901 26.0712 11.569C25.6677 11.8479 25.3321 12.214 25.0892 12.6402C24.8463 13.0664 24.7023 13.5417 24.6679 14.031C24.6335 14.5203 24.7096 15.0111 24.8905 15.4671L24.9973 15.7283L25.5852 16.522L25.7778 17.9354L26.3276 18.6685L28.1694 23.6411Z" fill="url(#paint9_linear_469_5238)"/>
<path d="M33.4401 9.50918L32.6073 9.43627C32.7027 9.10786 32.762 8.77003 32.7842 8.42877C32.5934 8.79635 32.3296 9.12117 32.009 9.3834L27.2334 8.96192L24.3277 3.09811C25.0194 0.825912 26.8108 -0.511505 29.0711 0.183792C29.2074 0.225703 29.3465 0.275688 29.4853 0.332752C30.7694 0.50402 31.9369 1.16684 32.7421 2.18168C33.5474 3.19651 33.9274 4.48418 33.8022 5.77359C34.9191 7.84387 34.0527 8.59256 33.4401 9.50918Z" fill="#2F2E41"/>
<path d="M30.1508 8.51134C28.3382 8.51134 26.8688 7.04194 26.8688 5.22935C26.8688 3.41676 28.3382 1.94736 30.1508 1.94736C31.9634 1.94736 33.4328 3.41676 33.4328 5.22935C33.4328 7.04194 31.9634 8.51134 30.1508 8.51134Z" fill="#9E616A"/>
<path d="M34.5475 4.32311C34.1959 4.57251 33.242 4.59532 32.1427 4.51231C32.1509 4.49149 32.1575 4.47015 32.164 4.44881C32.2594 4.1204 32.3188 3.78258 32.341 3.44131C32.1501 3.80889 31.8863 4.13371 31.5658 4.39594C31.5418 4.41552 31.5178 4.43509 31.4922 4.45416C30.5572 4.35701 29.5834 4.20481 28.8251 4.07039C28.771 6.03383 30.24 8.11003 29.6932 9.14571L23.697 8.56257C23.8722 8.11622 23.9771 7.64535 24.0077 7.16681C23.7188 7.72195 23.2671 8.17548 22.7131 8.46656L22.2035 8.4176L22.2773 7.66948C21.954 4.31602 24.6154 1.80338 27.9263 1.09868C28.6626 0.498207 29.6068 0.213678 30.5523 0.307293L31.3009 0.37946C31.7731 0.425214 32.2315 0.563515 32.6502 0.786467C33.0689 1.00942 33.4395 1.31265 33.741 1.67886C34.0425 2.04507 34.2689 2.46707 34.4073 2.92077C34.5457 3.37447 34.5933 3.85099 34.5475 4.32311Z" fill="#2F2E41"/>
<path d="M29.4742 0.497941C28.7234 0.631027 28.043 1.02306 27.5514 1.60587C27.0597 2.18868 26.7879 2.92538 26.7832 3.68785C26.7813 3.74255 26.7582 3.79437 26.7189 3.8324C26.6795 3.87043 26.6269 3.89168 26.5722 3.89168C26.5174 3.89168 26.4648 3.87043 26.4255 3.8324C26.3861 3.79437 26.363 3.74255 26.3612 3.68785C26.3659 2.83313 26.6679 2.00672 27.2155 1.35041C27.763 0.694097 28.5219 0.24882 29.362 0.0909881C29.6275 0.0431582 29.7415 0.449795 29.4742 0.497941H29.4742Z" fill="#8A90C9"/>
<path d="M0.167966 66.5369L120.833 66.5801C120.877 66.58 120.92 66.5623 120.951 66.5309C120.982 66.4995 121 66.4569 121 66.4126C121 66.3683 120.982 66.3257 120.951 66.2943C120.92 66.2629 120.877 66.2452 120.833 66.2451L0.167966 66.2019C0.123547 66.2019 0.0809427 66.2195 0.0495312 66.2509C0.0181197 66.2823 0.000468943 66.3249 0.000468943 66.3694C0.000468943 66.4138 0.0181197 66.4564 0.0495312 66.4878C0.0809427 66.5192 0.123547 66.5369 0.167966 66.5369Z" fill="#CACACA"/>
</g>
<defs>
<linearGradient id="paint0_linear_469_5238" x1="38.4601" y1="12.1426" x2="26.45" y2="20.3457" gradientUnits="userSpaceOnUse">
<stop stop-color="#443792"/>
<stop offset="0.947917" stop-color="#8E51DD" stop-opacity="0.93"/>
</linearGradient>
<linearGradient id="paint1_linear_469_5238" x1="72.9792" y1="30.1823" x2="63.3713" y2="30.7078" gradientUnits="userSpaceOnUse">
<stop stop-color="#443792"/>
<stop offset="0.947917" stop-color="#8E51DD" stop-opacity="0.93"/>
</linearGradient>
<linearGradient id="paint2_linear_469_5238" x1="90.6269" y1="29.6404" x2="63.5593" y2="34.5545" gradientUnits="userSpaceOnUse">
<stop stop-color="#443792"/>
<stop offset="0.947917" stop-color="#8E51DD" stop-opacity="0.93"/>
</linearGradient>
<linearGradient id="paint3_linear_469_5238" x1="66.654" y1="32.5489" x2="45.7075" y2="35.2635" gradientUnits="userSpaceOnUse">
<stop stop-color="#443792"/>
<stop offset="0.947917" stop-color="#8E51DD" stop-opacity="0.93"/>
</linearGradient>
<linearGradient id="paint4_linear_469_5238" x1="77.7326" y1="32.857" x2="66.6896" y2="34.8628" gradientUnits="userSpaceOnUse">
<stop stop-color="#443792"/>
<stop offset="0.947917" stop-color="#8E51DD" stop-opacity="0.93"/>
</linearGradient>
<linearGradient id="paint5_linear_469_5238" x1="64.8676" y1="46.4457" x2="53.8247" y2="48.4515" gradientUnits="userSpaceOnUse">
<stop stop-color="#443792"/>
<stop offset="0.947917" stop-color="#8E51DD" stop-opacity="0.93"/>
</linearGradient>
<linearGradient id="paint6_linear_469_5238" x1="56.6982" y1="39.2808" x2="42.2671" y2="44.1212" gradientUnits="userSpaceOnUse">
<stop stop-color="#443792"/>
<stop offset="0.947917" stop-color="#8E51DD" stop-opacity="0.93"/>
</linearGradient>
<linearGradient id="paint7_linear_469_5238" x1="94.4685" y1="39.4619" x2="80.0375" y2="44.3023" gradientUnits="userSpaceOnUse">
<stop stop-color="#443792"/>
<stop offset="0.947917" stop-color="#8E51DD" stop-opacity="0.93"/>
</linearGradient>
<linearGradient id="paint8_linear_469_5238" x1="36.4613" y1="10.5586" x2="20.1264" y2="13.0965" gradientUnits="userSpaceOnUse">
<stop stop-color="#443792"/>
<stop offset="0.947917" stop-color="#8E51DD" stop-opacity="0.93"/>
</linearGradient>
<linearGradient id="paint9_linear_469_5238" x1="32.5473" y1="11.8623" x2="22.2068" y2="13.7849" gradientUnits="userSpaceOnUse">
<stop stop-color="#443792"/>
<stop offset="0.947917" stop-color="#8E51DD" stop-opacity="0.93"/>
</linearGradient>
<clipPath id="clip0_469_5238">
<rect width="120.084" height="66.076" fill="white" transform="matrix(-1.00763 0 0 1.00763 121 0)"/>
</clipPath>
</defs>
</svg>
