<svg width="40" height="40" viewBox="0 0 40 40" fill="none" xmlns="http://www.w3.org/2000/svg">
<path d="M26 19H14C13.4696 19 12.9609 19.2107 12.5858 19.5858C12.2107 19.9609 12 20.4696 12 21V29C12 29.5304 12.2107 30.0391 12.5858 30.4142C12.9609 30.7893 13.4696 31 14 31H26C26.5304 31 27.0391 30.7893 27.4142 30.4142C27.7893 30.0391 28 29.5304 28 29V21C28 20.4696 27.7893 19.9609 27.4142 19.5858C27.0391 19.2107 26.5304 19 26 19ZM26 25H14V22H26M25 13V18H23.5V14.5H17.88L20.3 16.93L19.24 18L15 13.75L19.24 9.5L20.3 10.57L17.88 13H25Z" fill="#B7B7B7"/>
</svg>
