<svg width="24" height="24" viewBox="0 0 24 24" fill="none" xmlns="http://www.w3.org/2000/svg">
<path fill-rule="evenodd" clip-rule="evenodd" d="M22.5 12C22.5 11.8011 22.421 11.6104 22.2803 11.4697C22.1397 11.329 21.9489 11.25 21.75 11.25L4.0605 11.25L8.781 6.53103C8.92183 6.3902 9.00095 6.19919 9.00095 6.00003C9.00095 5.80087 8.92183 5.60986 8.781 5.46903C8.64017 5.3282 8.44916 5.24908 8.25 5.24908C8.05084 5.24908 7.85983 5.3282 7.719 5.46903L1.719 11.469C1.64915 11.5387 1.59374 11.6215 1.55593 11.7126C1.51812 11.8037 1.49866 11.9014 1.49866 12C1.49866 12.0987 1.51812 12.1964 1.55593 12.2875C1.59374 12.3786 1.64915 12.4614 1.719 12.531L7.719 18.531C7.85983 18.6719 8.05084 18.751 8.25 18.751C8.44916 18.751 8.64017 18.6719 8.781 18.531C8.92183 18.3902 9.00095 18.1992 9.00095 18C9.00095 17.8009 8.92183 17.6099 8.781 17.469L4.0605 12.75L21.75 12.75C21.9489 12.75 22.1397 12.671 22.2803 12.5304C22.421 12.3897 22.5 12.1989 22.5 12Z" fill="white"/>
</svg>
