<svg width="24" height="24" viewBox="0 0 24 24" fill="none" xmlns="http://www.w3.org/2000/svg">
<path d="M12.0003 3V2V3ZM6.00031 8.6H5.00031H6.00031ZM20.4143 16.9023L21.0081 17.7069L20.4143 16.9023ZM19.4729 14.4866L20.3261 13.9651L19.4729 14.4866ZM20.6155 16.5436L19.6193 16.4564L20.6155 16.5436ZM4.52776 14.4866L3.67449 13.9651L4.52776 14.4866ZM3.38515 16.5436L2.38895 16.6307L3.38515 16.5436ZM3.58633 16.9023L2.9925 17.7069L3.58633 16.9023ZM16.0003 18C16.0003 17.4477 15.5526 17 15.0003 17C14.448 17 14.0003 17.4477 14.0003 18H16.0003ZM10.0003 18C10.0003 17.4477 9.55259 17 9.00031 17C8.44802 17 8.00031 17.4477 8.00031 18H10.0003ZM19.0003 8.6C19.0003 6.82644 18.2448 5.14072 16.9253 3.90915L15.5606 5.37126C16.4915 6.24009 17.0003 7.40314 17.0003 8.6H19.0003ZM16.9253 3.90915C15.6081 2.67975 13.8354 2 12.0003 2V4C13.3478 4 14.6274 4.50024 15.5606 5.37126L16.9253 3.90915ZM12.0003 2C10.1652 2 8.39255 2.67975 7.07535 3.90915L8.43998 5.37126C9.37321 4.50024 10.6528 4 12.0003 4V2ZM7.07535 3.90915C5.75581 5.14072 5.00031 6.82644 5.00031 8.6H7.00031C7.00031 7.40314 7.50909 6.24009 8.43998 5.37126L7.07535 3.90915ZM5.00031 8.6C5.00031 11.1091 4.37134 12.8249 3.67449 13.9651L5.38103 15.0081C6.27688 13.5422 7.00031 11.4633 7.00031 8.6H5.00031ZM5.60636 18H18.3943V16H5.60636V18ZM20.3261 13.9651C19.6293 12.8249 19.0003 11.1091 19.0003 8.6H17.0003C17.0003 11.4633 17.7237 13.5422 18.6196 15.0081L20.3261 13.9651ZM18.3943 18C19.0145 18 19.5092 18.0002 19.8634 17.9871C20.0391 17.9806 20.2105 17.97 20.3596 17.949C20.4345 17.9384 20.5251 17.9223 20.6189 17.8952C20.701 17.8714 20.8544 17.8204 21.0081 17.7069L19.8204 16.0977C19.9411 16.0087 20.0459 15.9789 20.0633 15.9739C20.0924 15.9655 20.1023 15.9654 20.0799 15.9686C20.0345 15.975 19.9451 15.9827 19.7897 15.9885C19.4816 15.9998 19.0324 16 18.3943 16V18ZM18.6196 15.0081C19.0093 15.6457 19.2882 16.1023 19.4694 16.4211C19.561 16.5821 19.6137 16.6839 19.6406 16.7432C19.6542 16.7733 19.6517 16.7719 19.6447 16.7487C19.6436 16.7449 19.6044 16.6268 19.6193 16.4564L21.6117 16.6307C21.6301 16.4193 21.582 16.2457 21.5595 16.1711C21.5311 16.077 21.4949 15.9896 21.4623 15.9177C21.3968 15.7732 21.3076 15.6077 21.2081 15.4326C21.0073 15.0794 20.7077 14.5895 20.3261 13.9651L18.6196 15.0081ZM21.0081 17.7069C21.1129 17.6295 21.3004 17.4831 21.4368 17.24C21.5732 16.9968 21.6003 16.7605 21.6117 16.6307L19.6193 16.4564C19.6145 16.5108 19.6154 16.399 19.6924 16.2617C19.7694 16.1244 19.8644 16.0653 19.8204 16.0977L21.0081 17.7069ZM3.67449 13.9651C3.29289 14.5895 2.99335 15.0794 2.79252 15.4326C2.693 15.6077 2.60383 15.7732 2.53833 15.9177C2.50574 15.9896 2.46947 16.077 2.4411 16.1711C2.41861 16.2457 2.37047 16.4193 2.38895 16.6307L4.38135 16.4564C4.39625 16.6268 4.35702 16.7449 4.35589 16.7487C4.34888 16.7719 4.34641 16.7733 4.36001 16.7432C4.38689 16.6839 4.43965 16.5821 4.53116 16.4211C4.7124 16.1023 4.99133 15.6457 5.38103 15.0081L3.67449 13.9651ZM5.60636 16C4.96818 16 4.51901 15.9998 4.21093 15.9885C4.05547 15.9827 3.96609 15.975 3.92071 15.9686C3.89829 15.9654 3.90822 15.9655 3.93735 15.9739C3.95473 15.9789 4.05952 16.0087 4.18016 16.0977L2.9925 17.7069C3.14624 17.8204 3.29966 17.8714 3.3817 17.8952C3.4755 17.9223 3.56614 17.9384 3.64098 17.949C3.79013 17.97 3.96153 17.9806 4.13722 17.9871C4.49145 18.0002 4.98611 18 5.60636 18V16ZM2.38895 16.6307C2.4003 16.7605 2.42743 16.9968 2.5638 17.24C2.70018 17.4831 2.88769 17.6295 2.9925 17.7069L4.18016 16.0977C4.13624 16.0653 4.23122 16.1244 4.30821 16.2617C4.3852 16.399 4.3861 16.5108 4.38135 16.4564L2.38895 16.6307ZM14.0003 18C14.0003 19.1046 13.1049 20 12.0003 20V22C14.2094 22 16.0003 20.2091 16.0003 18H14.0003ZM12.0003 20C10.8957 20 10.0003 19.1046 10.0003 18H8.00031C8.00031 20.2091 9.79117 22 12.0003 22V20Z" fill="white"/>
</svg>
