<svg width="24" height="24" viewBox="0 0 24 24" fill="none" xmlns="http://www.w3.org/2000/svg">
<g clip-path="url(#clip0_0_5)">
<path d="M22.0641 0.440625C22.2047 0.585938 22.3125 0.75 22.3875 0.923438C22.4625 1.09688 22.5 1.28906 22.5 1.49531V6C22.5 6.82969 21.8297 7.5 21 7.5C20.1703 7.5 19.5 6.82969 19.5 6V5.12344L14.5594 10.0594C14.0063 10.6125 13.1156 10.65 12.5203 10.1391L8.25 6.47344L3.975 10.1391C3.34688 10.6781 2.4 10.6031 1.86094 9.975C1.32188 9.34688 1.39688 8.4 2.025 7.86094L7.275 3.36094C7.8375 2.87812 8.66719 2.87812 9.22969 3.36094L13.425 6.95625L17.3766 3H16.5C15.6703 3 15 2.32969 15 1.5C15 0.670312 15.6703 0 16.5 0H21C21.4125 0 21.7875 0.16875 22.0594 0.435938L22.0641 0.440625ZM0 14.25C0 13.0078 1.00781 12 2.25 12H21.75C22.9922 12 24 13.0078 24 14.25V21.75C24 22.9922 22.9922 24 21.75 24H2.25C1.00781 24 0 22.9922 0 21.75V14.25ZM2.25 19.5V21.75H4.5C4.5 20.5078 3.49219 19.5 2.25 19.5ZM4.5 14.25H2.25V16.5C3.49219 16.5 4.5 15.4922 4.5 14.25ZM21.75 19.5C20.5078 19.5 19.5 20.5078 19.5 21.75H21.75V19.5ZM19.5 14.25C19.5 15.4922 20.5078 16.5 21.75 16.5V14.25H19.5ZM15 18C15 16.3453 13.6547 15 12 15C10.3453 15 9 16.3453 9 18C9 19.6547 10.3453 21 12 21C13.6547 21 15 19.6547 15 18Z" fill="white"/>
</g>
<defs>
<clipPath id="clip0_0_5">
<rect width="24" height="24" fill="white"/>
</clipPath>
</defs>
</svg>
